<svg id="Layer_1" data-name="Layer 1" xmlns="http://www.w3.org/2000/svg" xmlns:xlink="http://www.w3.org/1999/xlink" viewBox="0 0 540 488.53"><defs><style>.cls-1{fill:#fff;}.cls-10,.cls-11,.cls-2{fill:#fafafa;}.cls-2{stroke:#e5e9ea;}.cls-11,.cls-2,.cls-3,.cls-9{fill-rule:evenodd;}.cls-3{fill:#e5e9ea;}.cls-4{mask:url(#mask);}.cls-5,.cls-6,.cls-7{fill:none;}.cls-5{stroke:#fff;stroke-width:40px;}.cls-6{stroke:#f3603c;stroke-dasharray:502;}.cls-6,.cls-7{stroke-width:80px;}.cls-7{stroke:#242d52;stroke-dasharray:340;}.cls-8,.cls-9{fill:#f3603c;}</style><mask id="mask" x="-20" y="-6.47" width="551.38" height="248.53" maskUnits="userSpaceOnUse"><g transform="translate(0 -6.47)"><g id="g"><ellipse id="a" class="cls-1" cx="61.04" cy="81.03" rx="81.04" ry="81.03"/></g><g id="h"><ellipse id="b" class="cls-1" cx="61.04" cy="81.03" rx="81.04" ry="81.03"/></g></g></mask></defs><title>illustration-intro-edit</title><rect id="d" y="3.53" width="260" height="235" rx="4"/><rect class="cls-1" y="3.53" width="260" height="235" rx="4"/><path class="cls-2" d="M16.21,26.21H246.49V228.79H16.21Z" transform="translate(0 -6.47)"/><path class="cls-3" d="M16.21,127.5H246.49v1H16.21Zm0,19H246.49v1H16.21Zm0,19H246.49v1H16.21Zm0,19H246.49v1H16.21Zm0-132.95H246.49v1H16.21Zm0-19H246.49v1H16.21Zm0,38H246.49v1H16.21Zm0,19H246.49v1H16.21Zm0,19H246.49v1H16.21Zm0,95H246.49v1H16.21Zm0,19H246.49v1H16.21ZM0,10m0,0,0,0,0,0,0,0,0,0" transform="translate(0 -6.47)"/><path class="cls-3" d="M0,10" transform="translate(0 -6.47)"/><path class="cls-3" d="M0,10" transform="translate(0 -6.47)"/><rect id="f" x="280" y="3.53" width="260" height="235" rx="4"/><rect class="cls-1" x="280" y="3.53" width="260" height="235" rx="4"/><g class="cls-4"><ellipse class="cls-5" cx="410.34" cy="121.03" rx="61.04" ry="61.03"/><ellipse class="cls-6" cx="410.34" cy="121.03" rx="81.04" ry="81.03"/><ellipse class="cls-7" cx="410.34" cy="121.03" rx="81.04" ry="81.03"/></g><rect id="j" x="140" y="253.53" width="260" height="235" rx="4"/><rect class="cls-1" x="140" y="253.53" width="260" height="235" rx="4"/><rect class="cls-8" x="156.21" y="393.99" width="106.03" height="78.33" rx="4"/><path class="cls-9" d="M156.21,400.46" transform="translate(0 -6.47)"/><rect class="cls-10" x="277.77" y="393.99" width="106.03" height="78.33" rx="4"/><path class="cls-11" d="M277.77,400.46" transform="translate(0 -6.47)"/><rect class="cls-10" x="156.21" y="269.74" width="227.58" height="108.05" rx="4"/><path class="cls-11" d="M156.21,276.21" transform="translate(0 -6.47)"/></svg>